<?xml version="1.0" encoding="utf-8"?>
<!-- Generator: Adobe Illustrator 18.1.1, SVG Export Plug-In . SVG Version: 6.00 Build 0)  -->
<svg version="1.1" id="Layer_1" xmlns="http://www.w3.org/2000/svg" xmlns:xlink="http://www.w3.org/1999/xlink" x="0px" y="0px"
	 viewBox="0 0 71.6 29" enable-background="new 0 0 71.6 29" xml:space="preserve">
<g>
	<path fill="#FFFFFF" d="M7.5,8.5h4.6v10.4c0,2.2-0.5,3.9-1.5,5.2c-1.3,1.6-3.1,2.4-5.4,2.4c-0.7,0-1.5-0.1-2.4-0.4v-4.3
		c0.8,0.4,1.4,0.5,2,0.5c1.8,0,2.7-1.3,2.7-4V8.5z M9.6,3c0.6,0,1.2,0.2,1.6,0.7c0.5,0.4,0.7,1,0.7,1.6c0,0.6-0.2,1.2-0.6,1.6
		c-0.4,0.4-1,0.6-1.7,0.6C9,7.4,8.4,7.2,8,6.8C7.6,6.4,7.3,5.9,7.3,5.2c0-0.6,0.2-1.1,0.7-1.6C8.5,3.2,9,3,9.6,3z"/>
	<path fill="#FFFFFF" d="M21.6,16.2v4.8c-0.4,0.1-0.7,0.1-1,0.1c-1.8,0-3.4-0.6-4.6-1.8c-1.2-1.2-1.8-2.7-1.8-4.6
		c0-1.8,0.6-3.3,1.9-4.5c1.2-1.2,2.8-1.9,4.5-1.9c2,0,3.5,0.6,4.7,1.7c1.1,1.2,1.7,2.7,1.7,4.8v6h-4.6v-5.7c0-0.6-0.2-1.2-0.5-1.5
		c-0.3-0.4-0.7-0.6-1.3-0.6c-0.5,0-0.9,0.2-1.3,0.5c-0.4,0.4-0.5,0.8-0.5,1.3c0,0.5,0.2,0.9,0.5,1.3c0.3,0.3,0.7,0.5,1.2,0.5
		C20.9,16.5,21.2,16.4,21.6,16.2z"/>
	<path fill="#FFFFFF" d="M36.3,8.4v4.9C36,13.1,35.7,13,35.4,13c-0.8,0-1.3,0.6-1.3,1.9v5.8h-4.6V14c0-1.8,0.5-3.2,1.5-4.2
		c1-1.1,2.3-1.6,3.9-1.6C35.3,8.2,35.7,8.3,36.3,8.4z"/>
	<path fill="#FFFFFF" d="M54.5,20.8h-4.6v-6.6c0-0.5-0.1-0.9-0.2-1.1c-0.1-0.2-0.3-0.3-0.6-0.3c-0.5,0-0.8,0.5-0.8,1.4v6.6h-4.6
		v-6.6c0-0.5-0.1-0.9-0.2-1.1c-0.1-0.2-0.3-0.3-0.6-0.3c-0.5,0-0.8,0.5-0.8,1.4v6.6h-4.6v-7.6c0-1.4,0.5-2.5,1.4-3.5
		c0.9-1,2-1.4,3.4-1.4c1.4,0,2.6,0.6,3.7,1.7c1.2-1.1,2.4-1.7,3.6-1.7c1.5,0,2.8,0.6,3.7,1.7c0.7,0.9,1.1,2.1,1.1,3.8V20.8z"/>
	<path fill="#FFFFFF" d="M63,8.2c1.7,0,3.2,0.6,4.5,1.9c1.2,1.3,1.9,2.7,1.9,4.5c0,1.8-0.6,3.3-1.9,4.5c-1.3,1.2-2.8,1.9-4.6,1.9
		c-1.8,0-3.3-0.6-4.6-1.9c-1.3-1.3-1.9-2.8-1.9-4.5c0-1.8,0.6-3.3,1.9-4.5C59.6,8.8,61.2,8.2,63,8.2z M62.9,12.8
		c-0.5,0-0.9,0.2-1.3,0.5s-0.5,0.8-0.5,1.3c0,0.5,0.2,0.9,0.5,1.3c0.3,0.4,0.8,0.5,1.2,0.5c0.5,0,0.9-0.2,1.3-0.5
		c0.3-0.4,0.5-0.8,0.5-1.3c0-0.5-0.2-1-0.5-1.3C63.8,12.9,63.4,12.8,62.9,12.8z"/>
</g>
</svg>
