<?xml version="1.0" encoding="utf-8"?>
<!-- Generator: Adobe Illustrator 18.1.1, SVG Export Plug-In . SVG Version: 6.00 Build 0)  -->
<svg version="1.1" xmlns="http://www.w3.org/2000/svg" xmlns:xlink="http://www.w3.org/1999/xlink" x="0px" y="0px"
	 viewBox="0 0 3589.4 4631.8" enable-background="new 0 0 3589.4 4631.8" xml:space="preserve">
<g id="Layer_1">
</g>
<g id="Layer_2">
	<g>
		<circle fill="#005F93" cx="1802.2" cy="1778.8" r="1704.4"/>
		<circle fill="#FFFFFF" cx="1802.2" cy="1778.8" r="1481.6"/>
		<g>
			<path fill="#005F93" d="M1725.9,1887.6c0,0-45.8,40.1-17.7,84.1C1707,1967.1,1709.8,1932.3,1725.9,1887.6z"/>
			<path fill="#005F93" d="M1708.3,1971.7c0.1,0.3,0.2,0.6,0.3,0.6C1708.5,1972,1708.4,1971.9,1708.3,1971.7z"/>
			<path fill="#005F93" d="M1919.6,1971.7c-0.1,0.2-0.2,0.4-0.3,0.6C1919.4,1972.2,1919.6,1972,1919.6,1971.7z"/>
			<path fill="#005F93" d="M1902,1887.6c16.1,44.8,18.9,79.5,17.7,84.1C1947.8,1927.6,1902,1887.6,1902,1887.6z"/>
			<path fill="#005F93" d="M2537,1974.2c2.8-5.8,85.8-88.5-2.7-190.5c0,0,3,32.3,7,70.9c0,34.5,0,69,0,103.5
				C2539.2,1964.5,2538.8,1970,2537,1974.2z"/>
			<path fill="#005F93" d="M2292,1506.2c-38-17.2-65.7-30.3-93.9-42.3c-12.7-5.4-26.2-10-39.8-12.4c-79.5-13.9-147.3,12-202.4,67.6
				c-25.9,26.1-44.1,62.1-28.2,100.6c12.8,31,20.6,72.7,71.7,63.8c6.4-1.1,14.8,3.5,20.9,7.5c26.9,17.7,51.6,39.8,80.4,53.5
				c53.3,25.4,106.9,12.1,167.9-5c-69.3-16.4-140.6,10.4-195-57c21.3-3.1,36.1-8.3,49.9-6.6c25.8,3.2,51.2,15.8,76.5,14.9
				c43.3-1.5,86.2-10.5,129.4-16c49.6-6.3,64.7-36.2,58.8-84.2c-5.8-47-40.6-49.7-70.3-66.4c-9.7,14.2-17.9,26.2-29.2,42.8
				c-1.4-16.5-2.2-26.9-3.4-41.2c-18.2,17.6-33.2,29.4-47.7,36.1c-19.2-8-41-14.7-64.6-18C2214.8,1530.8,2251.9,1519,2292,1506.2z"
				/>
			<path fill="#005F93" d="M1154.2,1987.9c35.6,77,83.8,136.2,143.7,185.2c86.2,70.5,185.1,120.2,295.6,82.9
				c72-24.3,134.4-16.2,201.8,0c13.1,3.1,28-1.1,42-1.9c70.9-4,139.5-17.3,212,11.4c49.6,19.6,109,29.7,166.4-1.3
				c85.3-46.2,156.4-107.4,216.7-182.1c12-14.9,19.4-33.5,28.9-50.4c-14.2,4.1-23.2,11.3-31,19.6c-34.8,36.5-77.9,53.1-127.6,53.6
				c-53.4,0.6-65.6-8.7-85.2-55.4c-22-11.2-41.6-25.1-59-41.5c-10.3-13.2-20-27.2-27.6-41.4c-32.7-61.6-102-102-102-102
				s23.1,53.9,9.6,84.7c0,0,5.8-6.1,14.9-10.1c-0.6,0.9-1.1,1.7-1.7,2.7c-9.6,16.2-19.6,28.2,6.3,42.8
				c23.1,13.1,40.5,36.3,60.5,55.1c-2,2.6-4.1,5.1-6.1,7.7c-85.8-32.6-173.6-48.4-265.3-35.5c-10.4,1.5-21.8-5.9-32.9-8.4
				c-14.5-3.2-29.3-8-43.9-7.7c-44.3,0.8-88.6,3.2-132.8,5.9c-20.4,1.2-41,3.2-60.9,7.4c-32.3,6.7-64.2,15.4-96.2,23.3
				c34-29.4,50.2-88.6,120.3-58.9c-6.7-18.9-10-35.3-15.7-47.9c0-28.9,13.8-61.1,13.8-61.1s-46,26.8-80.7,70
				c-32.9,20.5-65.3,42-96.1,65.5c-11.1,8.5-14.5,26.5-23.4,38.8c-7.9,11-17,26.5-28,28.9c-52.9,11.6-105.2,8.7-151.1-24.4
				C1198.4,2028,1179.5,2009.5,1154.2,1987.9z M1927.8,2199c-89.1,0-171,0-253,0c-0.4-9-0.8-7.6-1.2-11.3
				C1742.4,2135.2,1868.2,2136,1927.8,2199z"/>
			<path fill="#005F93" d="M1394.7,1602.7c-47.5,7.4-97.8,8.8-139,41.5c20.1,31.5,43.6,42.6,78.6,38.9c27-2.9,55.1,5.7,82.8,8.5
				c22.3,2.3,48.9,12,66.1,3.4c29.4-14.7,48.1-1.8,70.6,5.6c0.3,5,0.7,10,1,15c-50.2,7.2-100.3,14.4-149.1,21.4
				c53.6,47.6,248.2-19.7,255-78.5c10.1,5.9,19.5,11.4,30.7,18c47.5-68.5,29.3-161.4-43.2-190.9c-50.8-20.6-109.6-26.8-165.1-28
				c-20.7-0.5-42.1,31.2-63.2,48.3c17.9,11.4,35.4,23.7,53.9,33.9c7.5,4.1,18.3,2.3,25.9,6.2c14.2,7.4,27.2,17.1,40.7,25.8
				c-1.3,5.5-2.5,11.1-3.8,16.6C1489.4,1592.9,1441.7,1595.4,1394.7,1602.7z"/>
			<path fill="#005F93" d="M1883.9,2422c0.1-2,0.5-5,1-7.1c20.2,3.7,41.1,9.3,62.3,17.4c0-0.8-22.1-16.2-57-27.8
				c14.4-16.9,49-12.1,54.5-37.3c-48.2-34.7-104.3-26.8-159-22c-21.9,1.9-42.8,14.5-64.1,22.2c11,11.3,21.9,21.6,32.8,32.3
				c-19.4,5.5-39.3,14.1-59.2,26.8c0,0,22.4-8.1,58.4-13.4c-4.6,2.1-10.7,5-18.8,9C1791.6,2422,1839.5,2422,1883.9,2422z"/>
			<path fill="#005F93" d="M2555.5,2186.6c-31.4,13.1-40.3,36.2-50,66.3c-17.6,54.6-15.4,122.6-84.6,149.1
				c-5.1,2-5.3,14.5-10.3,19.4c-23.4,23.1-44.3,52.3-72.6,66c-38.7,18.9-83.3,25.7-125.3,37.8c4,13.8,5.9,20.4,5.9,20.4
				c-34.5,9.6-70.2,12.8-98.1,29.4c-22.8,13.6-36.2,43.1-53.8,65.6c-17.7-17.1-29.7-23-42.3-27.7c-42.6-15.9-91.1-6.4-132.1-30.7
				c-12.3-7.3-27.8-9-41.4-14.2c-23.4-9-44.3-17.9-69.8,0.1c-47,33.3-99.1,46.5-157.2,29c-12.5-3.7-28.3,5.2-42.8,6.5
				c-23.5,2.1-60.4,20.1-66.1-10.5c-8.8-47.5-34.2-41.5-64.4-34.5c-21.8,5-38,3.2-44.6-21.5c-1.1-4-2.6-9.7-5.6-11.1
				c-37.3-17.9-74.9-35.1-114.4-53.4c-5.9,9.5-12.3,19.8-22.4,36.1c-24.9-19.8-48-38.1-71.1-56.4c20.2,53.3,36.6,111.7,74.4,147.8
				c46.3,44.3,80,90.3,98,150.4c1.8,6.1,13.1,9.3,19.6,14.3c2.5,1.9,4.2,5,5.9,7.1c-8.7,8.3-16.1,15.4-24.5,23.4
				c78.2-8.2,77.1,75.3,125.7,102.1c2.2-10.6,3.9-18.6,5.6-26.6c3.9-1.8,7.8-3.5,11.7-5.3c6.8,13.6,11.4,29.1,21,40.4
				c11.9,14,26.4,27.4,42.5,35.9c17.2,9.1,45.2,6.2,55.1,19c17.9,23.1,42.6,23.9,63.1,35.6c50.5,28.8,102.4,29,156.9,33.5
				c55.2,4.5,95.5-7.9,121.2-57.2c19,8.8,34.9,16.1,50.8,23.4c-2-3.4-3.9-6.9-5.9-10.3c16.1-16.3,30.8-34.3,48.6-48.5
				c14.7-11.8,37.4-15.4,48.7-29.2c35.4-43.2,67.6-89.2,100-134.8c33.4-46.9,64.5-95.4,98.6-141.8c28.1-38.2,59-74.4,88.7-111.5
				c1.2,1.6,2.2,3,3.1,4.4c34-51.5,58.7-97.3,67.6-118.9c32.7-78.9,46.2-161.7,46.2-161.7s26.9,1.9,57.7-30.8
				c30.8-32.7,52-159.7,65.4-219.4c2.3-10.1,4.2-23.2,5.9-38.3c-10,66.1-26.9,131-52.4,194.1
				C2585.5,2164.4,2570.3,2180.3,2555.5,2186.6z"/>
			<path fill="#005F93" d="M2632.3,1654.8c0-1.9-5.8-273.3-7.7-390.7c-1.9-117.4-73.1-277.1-198.2-456.1S2028,507.9,1731.7,507.9
				c-296.4,0-525.4,192.4-665.8,402.2c-140.5,209.8-119.3,431.1-123.2,519.6c-3.8,88.5,9.6,213.6-9.6,246.3
				c-19.2,32.7-21.2,82.7-19.2,82.7c-7.7,50,9.6,150.1,26.9,194.4s17.3,113.5,44.3,196.3c26.9,82.7,84.7,96.2,84.7,96.2
				s0,15.4,11.5,53.9c7.2,23.9,31.4,92.2,70.8,165l-31-139.2c-9.3-14.5-10.3-34.2-16.5-51c-9.6-26.1-14.2-57.6-32-76.2
				c-11.2-11.8-24.8-21.4-39.1-30.3c-14-74.8-38.2-206.6-58.7-330.8c7.7-22.5,15.5-45.5,24.2-71.2c12.4,11.4,19.7,18,20.8,19
				c17.5-5.9,30.7-10.3,47.9-16.1c4.7-20.8,12.5-45.5,15.4-70.8c7.3-63.7,10.2-128.1,19.1-191.5c10.8-77.4,25.4-154.4,39.6-231.3
				c4.5-24.5,23.2-50.8,17.9-71.9c-14.4-57.5,3.3-106.1,27-155c30.1-62.2,58.3-125.5,92.3-185.5c19.9-35.1,56.3-45.2,97.4-38
				c18.4,3.2,38.4,3.1,56.7-0.4c40.9-7.9,81.1-27.7,121.8,1c4.2,3,13.9,3.1,18.2,0.2c31.1-20.8,60.5-5.9,89.9,3.5
				c14,4.5,27,12.3,52.9,24.5c-8.5-31-14-51.1-19.4-71.2c1.7-2.7,3.4-5.3,5.1-8c9.4,8.5,20.2,15.9,27.8,25.7
				c9.5,12.3,16.4,26.5,24.5,39.9c3.8-1.1,7.6-2.2,11.4-3.4c5-12.5,9.8-25.2,15.1-37.6c11-25.5,47.9-33.8,62-10.7
				c34.4,56.2,81.4,60.2,138.8,46c19.6-4.8,42.3,3.4,63.6,5.6c16.6,3.9,33.7,2.6,50.5,4.2c41.9,3.8,83.7,12.7,125.4,12.3
				c38.3-0.4,67.2,11.1,90.7,40.3c57,70.9,100.2,147.9,112.5,240c9.7,72.7,58,133.4,62.8,209.2c5,78.7,20.7,156.7,31.1,235.1
				c7.1,53.9,13.2,107.9,20.5,168c17.7-11.2,26.8-17,44.5-28.1c12.6,47.1,23.9,89.2,37.2,138.9c8.6-33.5,15.2-59.4,21.8-85.3
				c3.6,0.9,7.2,1.8,10.9,2.6c0.1,0.5,0.2,1,0.3,1.5c0.5-27.2,0.6-50.7,0.6-66C2653.5,1656.7,2632.3,1656.7,2632.3,1654.8z"/>
			<path fill="#005F93" d="M1761.2,2291.7c-30.9-7.9-61.8-15.8-92.7-23.8c-1,3.7-2,7.4-3,11.1c30.8,8.2,61.6,16.4,92.4,24.6
				C1759,2299.7,1760.1,2295.7,1761.2,2291.7z"/>
			<path fill="#005F93" d="M1069.4,1808.5c-2.1,1.9-4.1,4.1-5.9,6.4c1.3-18.7,2.4-31.3,2.4-31.3c-61.6,102-3.8,184.7-1.9,190.5
				c-2-6.8-3.3-17.2-4-29.7c0.5,0.7,0.9,1.6,1.4,2.3C1064.3,1896.2,1066.8,1852.4,1069.4,1808.5z"/>
		</g>
	</g>
	<g>
		<path fill="#005F93" d="M356.3,3664.8h228.9v515.2c0,107.7-25.5,193.4-76.5,257c-64.9,80.8-154.2,121.2-268,121.2
			c-34.7,0-73.8-7.3-117.5-22v-216c38.4,17.9,70.8,26.9,97.3,26.9c90.6,0,135.8-66.7,135.8-200.1V3664.8z M464,3392.5
			c31,0,57.8,10.9,80.5,32.7c22.6,21.8,34,47.6,34,77.4c0,31.8-10.7,57.9-32.1,78.3c-21.4,20.4-48.9,30.6-82.3,30.6
			c-33.5,0-60.9-10.2-82.3-30.6c-21.4-20.4-32.1-46.5-32.1-78.3c0-29.8,11.3-55.6,34-77.4C406.2,3403.4,433,3392.5,464,3392.5z"/>
		<path fill="#005F93" d="M1058.2,4046.1v236.8c-18.8,3.3-35.9,4.9-51.4,4.9c-91.8,0-168.3-30.2-229.5-90.6
			c-61.2-60.4-91.8-136-91.8-227c0-88.5,30.9-163.6,92.7-225.2c61.8-61.6,137-92.4,225.5-92.4c98.7,0,176.5,28.9,233.4,86.6
			c56.9,57.7,85.4,136.6,85.4,236.5v299.2h-228.9v-282.7c0-32.2-7.9-57.9-23.6-77.1c-15.7-19.2-36.8-28.8-63.3-28.8
			c-24.1,0-44.9,8.8-62.4,26.3c-17.5,17.5-26.3,38.4-26.3,62.4c0,25.3,8,46.1,23.9,62.4c15.9,16.3,36.1,24.5,60.6,24.5
			C1022.5,4062,1041.1,4056.7,1058.2,4046.1z"/>
		<path fill="#005F93" d="M1790.7,3658.7v244.8c-15.9-9-30.4-13.5-43.4-13.5c-41.6,0-62.4,31.8-62.4,95.5v289.4H1456v-333.5
			c0-88.1,24.1-158.4,72.2-210.8c48.1-52.4,112.4-78.6,192.8-78.6C1738.9,3652,1762.1,3654.2,1790.7,3658.7z"/>
		<path fill="#005F93" d="M2695.1,4274.9h-228.9v-329.2c0-25.3-2.7-42.8-8-52.6c-5.3-9.8-14.9-14.7-28.8-14.7
			c-25.7,0-38.6,22.6-38.6,67.9v328.6h-228.9v-329.2c0-25.3-2.8-42.8-8.3-52.6c-5.5-9.8-15.2-14.7-29.1-14.7
			c-25.3,0-37.9,22.6-37.9,67.9v328.6H1858v-375.7c0-68.5,23-126.8,69.1-174.7c46.1-47.9,102-71.9,167.7-71.9
			c67.7,0,128.5,28.6,182.4,85.7c60-57.1,119.9-85.7,179.9-85.7c76.3,0,137.5,27.7,183.6,83.2c36.3,43.2,54.5,106.3,54.5,189.1
			V4274.9z"/>
		<path fill="#005F93" d="M3118.5,3652c86.5,0,160.6,31.1,222.4,93.3c61.8,62.2,92.7,136.8,92.7,223.7c0,88.1-31.3,163.2-93.9,225.2
			c-62.6,62-138.2,93-226.7,93c-88.5,0-164.2-31.1-227-93.3c-62.8-62.2-94.2-137.2-94.2-224.9c0-89.3,31.4-164.5,94.2-225.5
			C2948.8,3682.5,3026.3,3652,3118.5,3652z M3112.4,3877.8c-24.5,0-45.3,8.9-62.4,26.6c-17.1,17.7-25.7,39.5-25.7,65.2
			c0,25.3,8.7,46.9,26,64.9c17.3,18,38,26.9,62.1,26.9c24.5,0,45.4-9,62.7-26.9c17.3-17.9,26-39.6,26-64.9
			c0-25.7-8.6-47.4-25.7-65.2C3158.3,3886.6,3137.3,3877.8,3112.4,3877.8z"/>
	</g>
</g>
</svg>
