<?xml version="1.0" encoding="utf-8"?>
<!-- Generator: Adobe Illustrator 18.1.1, SVG Export Plug-In . SVG Version: 6.00 Build 0)  -->
<svg version="1.1" id="Layer_1" xmlns="http://www.w3.org/2000/svg" xmlns:xlink="http://www.w3.org/1999/xlink" x="0px" y="0px"
	 viewBox="0 0 31 31" enable-background="new 0 0 31 31" xml:space="preserve">
<path fill="#333333" d="M15.6,0.3C7.2,0.3,0.4,7.1,0.4,15.4c0,8.4,6.8,15.1,15.1,15.1c8.4,0,15.1-6.8,15.1-15.1
	C30.7,7.1,23.9,0.3,15.6,0.3z M15.6,26.3c-6,0-10.9-4.9-10.9-10.9c0-6,4.9-10.9,10.9-10.9c6,0,10.9,4.9,10.9,10.9
	C26.5,21.4,21.6,26.3,15.6,26.3z"/>
<polyline fill="none" stroke="#333333" stroke-width="5" stroke-miterlimit="10" points="9.6,13.4 15.4,18.9 20.8,13.4 "/>
</svg>
